<?xml version="1.0" encoding="UTF-8" standalone="no"?>
<svg
   xmlns:dc="http://purl.org/dc/elements/1.1/"
   xmlns:cc="http://creativecommons.org/ns#"
   xmlns:rdf="http://www.w3.org/1999/02/22-rdf-syntax-ns#"
   xmlns:svg="http://www.w3.org/2000/svg"
   xmlns="http://www.w3.org/2000/svg"
   xmlns:sodipodi="http://sodipodi.sourceforge.net/DTD/sodipodi-0.dtd"
   xmlns:inkscape="http://www.inkscape.org/namespaces/inkscape"
   version="1.1"
   id="Capa_1"
   x="0px"
   y="0px"
   viewBox="0 0 489.533 489.533"
   style="enable-background:new 0 0 489.533 489.533;"
   xml:space="preserve"
   sodipodi:docname="reload.svg"
   inkscape:version="1.0.1 (3bc2e813f5, 2020-09-07)"
   inkscape:export-filename="E:\dev\ktane_slugs_and_the_river\Assets\SlugsAndTheRiver\Textures\reset.png"
   inkscape:export-xdpi="50.200001"
   inkscape:export-ydpi="50.200001"><metadata
   id="metadata1003"><rdf:RDF><cc:Work
       rdf:about=""><dc:format>image/svg+xml</dc:format><dc:type
         rdf:resource="http://purl.org/dc/dcmitype/StillImage" /><dc:title /></cc:Work></rdf:RDF></metadata><defs
   id="defs1001" /><sodipodi:namedview
   pagecolor="#ffffff"
   bordercolor="#666666"
   borderopacity="1"
   objecttolerance="10"
   gridtolerance="10"
   guidetolerance="10"
   inkscape:pageopacity="0"
   inkscape:pageshadow="2"
   inkscape:window-width="1858"
   inkscape:window-height="1057"
   id="namedview999"
   showgrid="false"
   inkscape:zoom="0.94579938"
   inkscape:cx="179.85503"
   inkscape:cy="273.0681"
   inkscape:window-x="54"
   inkscape:window-y="-8"
   inkscape:window-maximized="1"
   inkscape:current-layer="g966"
   inkscape:document-rotation="0" />
<g
   id="g966"
   style="fill:#000000;fill-opacity:1;stroke:#000000;stroke-width:19.9677;stroke-miterlimit:4;stroke-dasharray:none;stroke-opacity:1"
   transform="matrix(0.87602694,0,0,0.87602694,30.344368,30.338402)">
	<path
   d="m 268.175,488.161 c 98.2,-11 176.9,-89.5 188.1,-187.7 14.7,-128.4 -85.1,-237.7 -210.2,-239.1 v -57.6 c 0,-3.2 -4,-4.9 -6.7,-2.9 l -118.6,87.1 c -2,1.5 -2,4.4 0,5.9 l 118.6,87.1 c 2.7,2 6.7,0.2 6.7,-2.9 v -57.5 c 87.9,1.4 158.3,76.2 152.3,165.6 -5.1,76.9 -67.8,139.3 -144.7,144.2 -81.5,5.2 -150.8,-53 -163.2,-130 -2.3,-14.3 -14.8,-24.7 -29.2,-24.7 -17.9,0 -31.9,15.9 -29.1,33.6 17.4,109.7 118.7,192 236,178.9 z"
   id="path964"
   style="fill:#ffffff;fill-opacity:1;stroke:#ffffff;stroke-width:19.9677;stroke-miterlimit:4;stroke-dasharray:none;stroke-opacity:1" />
</g>
<g
   id="g968"
   transform="matrix(0.87602694,0,0,0.87602694,30.344368,30.338402)"
   style="fill:#000000;fill-opacity:1;stroke:#000000;stroke-width:19.9677;stroke-miterlimit:4;stroke-dasharray:none;stroke-opacity:1">
</g>
<g
   id="g970"
   transform="matrix(0.87602694,0,0,0.87602694,30.344368,30.338402)"
   style="fill:#000000;fill-opacity:1;stroke:#000000;stroke-width:19.9677;stroke-miterlimit:4;stroke-dasharray:none;stroke-opacity:1">
</g>
<g
   id="g972"
   transform="matrix(0.87602694,0,0,0.87602694,30.344368,30.338402)"
   style="fill:#000000;fill-opacity:1;stroke:#000000;stroke-width:19.9677;stroke-miterlimit:4;stroke-dasharray:none;stroke-opacity:1">
</g>
<g
   id="g974"
   transform="matrix(0.87602694,0,0,0.87602694,30.344368,30.338402)"
   style="fill:#000000;fill-opacity:1;stroke:#000000;stroke-width:19.9677;stroke-miterlimit:4;stroke-dasharray:none;stroke-opacity:1">
</g>
<g
   id="g976"
   transform="matrix(0.87602694,0,0,0.87602694,30.344368,30.338402)"
   style="fill:#000000;fill-opacity:1;stroke:#000000;stroke-width:19.9677;stroke-miterlimit:4;stroke-dasharray:none;stroke-opacity:1">
</g>
<g
   id="g978"
   transform="matrix(0.87602694,0,0,0.87602694,30.344368,30.338402)"
   style="fill:#000000;fill-opacity:1;stroke:#000000;stroke-width:19.9677;stroke-miterlimit:4;stroke-dasharray:none;stroke-opacity:1">
</g>
<g
   id="g980"
   transform="matrix(0.87602694,0,0,0.87602694,30.344368,30.338402)"
   style="fill:#000000;fill-opacity:1;stroke:#000000;stroke-width:19.9677;stroke-miterlimit:4;stroke-dasharray:none;stroke-opacity:1">
</g>
<g
   id="g982"
   transform="matrix(0.87602694,0,0,0.87602694,30.344368,30.338402)"
   style="fill:#000000;fill-opacity:1;stroke:#000000;stroke-width:19.9677;stroke-miterlimit:4;stroke-dasharray:none;stroke-opacity:1">
</g>
<g
   id="g984"
   transform="matrix(0.87602694,0,0,0.87602694,30.344368,30.338402)"
   style="fill:#000000;fill-opacity:1;stroke:#000000;stroke-width:19.9677;stroke-miterlimit:4;stroke-dasharray:none;stroke-opacity:1">
</g>
<g
   id="g986"
   transform="matrix(0.87602694,0,0,0.87602694,30.344368,30.338402)"
   style="fill:#000000;fill-opacity:1;stroke:#000000;stroke-width:19.9677;stroke-miterlimit:4;stroke-dasharray:none;stroke-opacity:1">
</g>
<g
   id="g988"
   transform="matrix(0.87602694,0,0,0.87602694,30.344368,30.338402)"
   style="fill:#000000;fill-opacity:1;stroke:#000000;stroke-width:19.9677;stroke-miterlimit:4;stroke-dasharray:none;stroke-opacity:1">
</g>
<g
   id="g990"
   transform="matrix(0.87602694,0,0,0.87602694,30.344368,30.338402)"
   style="fill:#000000;fill-opacity:1;stroke:#000000;stroke-width:19.9677;stroke-miterlimit:4;stroke-dasharray:none;stroke-opacity:1">
</g>
<g
   id="g992"
   transform="matrix(0.87602694,0,0,0.87602694,30.344368,30.338402)"
   style="fill:#000000;fill-opacity:1;stroke:#000000;stroke-width:19.9677;stroke-miterlimit:4;stroke-dasharray:none;stroke-opacity:1">
</g>
<g
   id="g994"
   transform="matrix(0.87602694,0,0,0.87602694,30.344368,30.338402)"
   style="fill:#000000;fill-opacity:1;stroke:#000000;stroke-width:19.9677;stroke-miterlimit:4;stroke-dasharray:none;stroke-opacity:1">
</g>
<g
   id="g996"
   transform="matrix(0.87602694,0,0,0.87602694,30.344368,30.338402)"
   style="fill:#000000;fill-opacity:1;stroke:#000000;stroke-width:19.9677;stroke-miterlimit:4;stroke-dasharray:none;stroke-opacity:1">
</g>
</svg>
